<svg width="20" height="26" viewBox="0 0 20 26" fill="none" xmlns="http://www.w3.org/2000/svg">
<path d="M16.5198 14.5275C15.6683 16.2533 14.5145 17.9725 13.3348 19.5163C12.2156 20.9716 11.019 22.3657 9.75 23.6925C8.48101 22.3657 7.28436 20.9717 6.16525 19.5163C4.9855 17.9725 3.83175 16.2533 2.98025 14.5275C2.119 12.7839 1.625 11.1508 1.625 9.75C1.625 7.59512 2.48102 5.52849 4.00476 4.00476C5.52849 2.48102 7.59512 1.625 9.75 1.625C11.9049 1.625 13.9715 2.48102 15.4952 4.00476C17.019 5.52849 17.875 7.59512 17.875 9.75C17.875 11.1508 17.3794 12.7839 16.5198 14.5275ZM9.75 26C9.75 26 19.5 16.7603 19.5 9.75C19.5 7.16414 18.4728 4.68419 16.6443 2.85571C14.8158 1.02723 12.3359 0 9.75 0C7.16414 0 4.68419 1.02723 2.85571 2.85571C1.02723 4.68419 3.85323e-08 7.16414 0 9.75C0 16.7603 9.75 26 9.75 26Z" fill="white"/>
<path d="M9.75 13C8.88805 13 8.0614 12.6576 7.4519 12.0481C6.84241 11.4386 6.5 10.612 6.5 9.75C6.5 8.88805 6.84241 8.0614 7.4519 7.4519C8.0614 6.84241 8.88805 6.5 9.75 6.5C10.612 6.5 11.4386 6.84241 12.0481 7.4519C12.6576 8.0614 13 8.88805 13 9.75C13 10.612 12.6576 11.4386 12.0481 12.0481C11.4386 12.6576 10.612 13 9.75 13ZM9.75 14.625C11.0429 14.625 12.2829 14.1114 13.1971 13.1971C14.1114 12.2829 14.625 11.0429 14.625 9.75C14.625 8.45707 14.1114 7.21709 13.1971 6.30285C12.2829 5.38861 11.0429 4.875 9.75 4.875C8.45707 4.875 7.21709 5.38861 6.30285 6.30285C5.38861 7.21709 4.875 8.45707 4.875 9.75C4.875 11.0429 5.38861 12.2829 6.30285 13.1971C7.21709 14.1114 8.45707 14.625 9.75 14.625Z" fill="white"/>
</svg>
