<svg width="21" height="16" viewBox="0 0 21 16" fill="none" xmlns="http://www.w3.org/2000/svg">
<path d="M4.48891 0.283178C4.40212 0.194625 4.29873 0.124041 4.18465 0.07546C4.07057 0.0268787 3.94804 0.00125201 3.82405 4.4742e-05C3.70007 -0.00116253 3.57706 0.0220729 3.46205 0.0684237C3.34705 0.114774 3.24231 0.183332 3.15381 0.270179C2.15274 1.26543 1.35865 2.44906 0.817357 3.75276C0.27606 5.05647 -0.00173156 6.45446 8.12073e-06 7.86608C-0.00161552 9.33185 0.298038 10.7823 0.880372 12.1275C1.4627 13.4726 2.31529 14.6837 3.38521 15.6856C3.56528 15.852 3.80315 15.9418 4.0483 15.9357C4.29345 15.9296 4.52659 15.8282 4.69821 15.6531C5.10901 15.2423 5.05831 14.5884 4.66311 14.2101C3.80446 13.3918 3.12116 12.4074 2.65476 11.3168C2.18836 10.2262 1.94858 9.05221 1.95001 7.86608C1.95001 5.46628 2.91331 3.29008 4.47591 1.70668C4.85291 1.32318 4.89191 0.686178 4.48891 0.283178Z" fill="white"/>
<path d="M6.77821 2.57377C6.60699 2.39761 6.37293 2.2965 6.1273 2.2926C5.88168 2.2887 5.64452 2.38233 5.4678 2.55297C4.76428 3.24727 4.20589 4.07457 3.82514 4.98672C3.44439 5.89887 3.24889 6.87765 3.25 7.86607C3.25 10.0657 4.19901 12.043 5.71091 13.4093C5.88933 13.5669 6.12156 13.6498 6.35948 13.6409C6.59739 13.6319 6.82274 13.5318 6.9888 13.3612C7.41521 12.9348 7.33591 12.264 6.9355 11.887C6.38666 11.371 5.94946 10.748 5.65096 10.0564C5.35245 9.36482 5.19897 8.61935 5.2 7.86607C5.2 6.37107 5.7941 5.01387 6.76 4.01807C7.1318 3.63587 7.19291 2.98717 6.77821 2.57377Z" fill="white"/>
<path d="M14.0219 2.57377C14.1931 2.39761 14.4271 2.2965 14.6728 2.2926C14.9184 2.2887 15.1555 2.38233 15.3323 2.55297C16.0358 3.24727 16.5942 4.07457 16.9749 4.98672C17.3557 5.89887 17.5512 6.87765 17.5501 7.86607C17.5501 10.0657 16.6011 12.043 15.0892 13.4093C14.9107 13.5669 14.6785 13.6498 14.4406 13.6409C14.2027 13.6319 13.9773 13.5318 13.8113 13.3612C13.3849 12.9348 13.4642 12.264 13.8646 11.887C14.4134 11.371 14.8506 10.748 15.1491 10.0564C15.4476 9.36482 15.6011 8.61935 15.6001 7.86607C15.6001 6.37107 15.006 5.01387 14.0401 4.01807C13.6683 3.63587 13.6072 2.98717 14.0219 2.57377Z" fill="white"/>
<path d="M16.3111 0.283178C16.3979 0.194625 16.5013 0.124041 16.6154 0.07546C16.7295 0.0268787 16.852 0.00125201 16.976 4.4742e-05C17.1 -0.00116253 17.223 0.0220729 17.338 0.0684237C17.453 0.114774 17.5577 0.183332 17.6462 0.270179C18.6473 1.26543 19.4414 2.44906 19.9827 3.75276C20.524 5.05647 20.8018 6.45446 20.8 7.86608C20.8016 9.33185 20.502 10.7823 19.9197 12.1275C19.3373 13.4726 18.4847 14.6837 17.4148 15.6856C17.2347 15.852 16.9969 15.9418 16.7517 15.9357C16.5066 15.9296 16.2734 15.8282 16.1018 15.6531C15.691 15.2423 15.7417 14.5884 16.1382 14.2101C16.9966 13.3917 17.6797 12.4073 18.1459 11.3167C18.612 10.2261 18.8516 9.05212 18.85 7.86608C18.85 5.46628 17.8867 3.29008 16.3241 1.70668C15.9471 1.32318 15.9081 0.686178 16.3111 0.283178Z" fill="white"/>
<path d="M10.4002 5.91602C9.88302 5.91602 9.38703 6.12146 9.02134 6.48716C8.65564 6.85285 8.4502 7.34884 8.4502 7.86602C8.4502 8.38319 8.65564 8.87918 9.02134 9.24487C9.38703 9.61057 9.88302 9.81602 10.4002 9.81602C10.9174 9.81602 11.4134 9.61057 11.7791 9.24487C12.1447 8.87918 12.3502 8.38319 12.3502 7.86602C12.3502 7.34884 12.1447 6.85285 11.7791 6.48716C11.4134 6.12146 10.9174 5.91602 10.4002 5.91602Z" fill="white"/>
</svg>
