<svg width="24" height="22" viewBox="0 0 24 22" fill="none" xmlns="http://www.w3.org/2000/svg">
<path d="M17.0091 18.6697C16.9668 18.7673 16.9213 18.8616 16.8757 18.9559C16.8335 19.0437 16.7652 19.1673 16.7684 19.1771L16.7814 19.1543L16.8075 19.1088L16.879 18.982C16.9245 18.8974 16.9701 18.8096 17.0156 18.7185C17.1067 18.5397 17.1912 18.3575 17.2758 18.1754C17.4416 17.8046 17.601 17.4274 17.7506 17.0469C17.936 16.5753 18.1149 16.0972 18.2872 15.6191C17.8839 16.6241 17.4807 17.5802 17.1392 18.377C17.0904 18.4779 17.0481 18.5754 17.0091 18.6697Z" fill="url(#paint0_linear)"/>
<path d="M10.7584 14.6699C10.6478 15.109 10.5373 15.5448 10.4299 15.9708C10.5503 15.535 10.6576 15.1025 10.7584 14.6699Z" fill="url(#paint1_linear)"/>
<path d="M13.9261 14.881C13.9554 14.972 13.9814 15.0598 14.0074 15.1476C13.8969 14.7476 13.7863 14.3378 13.679 13.915C13.7505 14.1915 13.8416 14.6078 13.9261 14.881Z" fill="url(#paint2_linear)"/>
<path d="M14.9083 16.8196C15.0514 17.2749 15.2042 17.7269 15.3701 18.166C15.4514 18.3839 15.5392 18.6018 15.6335 18.8099C15.6791 18.914 15.7279 19.0181 15.7799 19.1189L15.8579 19.2685C15.8872 19.3238 15.9035 19.3498 15.9262 19.3888C15.9945 19.4994 16.0628 19.6067 16.1474 19.7076C16.232 19.8019 16.3328 19.8994 16.4629 19.9255C16.4954 19.9287 16.5279 19.9352 16.5604 19.9287C16.593 19.9222 16.6222 19.9092 16.6515 19.8929C16.7068 19.8604 16.7588 19.8149 16.8043 19.7694C16.8954 19.675 16.9735 19.5677 17.045 19.4604C17.1068 19.3693 17.2109 19.197 17.2889 19.0474C17.3735 18.8945 17.4515 18.7384 17.5231 18.5855C17.6694 18.2766 17.7963 17.9676 17.9004 17.6684L17.8581 17.6489L17.8158 17.7822C17.6044 18.2278 17.4093 18.5693 17.2076 18.9173C17.2174 18.8978 17.2271 18.875 17.2369 18.8522C17.2174 18.888 17.2011 18.9238 17.1816 18.9595C17.1458 19.0181 17.1133 19.0734 17.0775 19.1319C17.045 19.184 17.0125 19.2392 16.9767 19.2945C16.9312 19.3661 16.8857 19.4409 16.8304 19.5222C16.7783 19.597 16.723 19.675 16.645 19.7368C16.6157 19.7563 16.5864 19.7726 16.5539 19.7791C16.5377 19.7824 16.5214 19.7824 16.5051 19.7824C16.4889 19.7824 16.4726 19.7791 16.4564 19.7759C16.3913 19.7596 16.3328 19.7206 16.284 19.6783C16.1832 19.5872 16.1084 19.4734 16.0368 19.3563C16.0173 19.3271 16.0043 19.2978 15.9848 19.2653C15.9588 19.2197 15.936 19.1709 15.9132 19.1254C15.8677 19.0311 15.8222 18.9368 15.7766 18.8392C15.6888 18.6441 15.6075 18.4457 15.5295 18.2441C15.2205 17.4375 14.9603 16.6212 14.7066 15.8602C14.4074 14.9138 14.1277 14.104 13.8318 13.1543C13.9033 13.4275 13.9977 13.847 14.0822 14.117C14.3554 14.9886 14.6188 15.9122 14.9083 16.8196Z" fill="url(#paint3_linear)"/>
<path d="M14.0107 15.1484C14.3034 16.1892 14.6059 17.1746 14.9669 18.1438C15.0027 18.2218 15.0612 18.3454 15.1132 18.4592C14.8921 17.825 14.7165 17.2852 14.5376 16.7616C14.362 16.2379 14.1896 15.7273 14.0107 15.1484Z" fill="url(#paint4_linear)"/>
<path d="M15.1133 18.459C15.1393 18.5305 15.1621 18.5988 15.1881 18.6704C15.2011 18.6834 15.2141 18.6997 15.2271 18.7192C15.2206 18.6997 15.2108 18.6834 15.2043 18.6639C15.1816 18.6118 15.1523 18.537 15.1133 18.459Z" fill="url(#paint5_linear)"/>
<path d="M16.7522 18.9761L16.7164 19.0444C16.7066 19.0639 16.6904 19.0965 16.6904 19.0965C16.6871 19.1095 16.6839 19.1225 16.6774 19.1355C16.6676 19.1615 16.6579 19.1908 16.6416 19.2168C16.6676 19.181 16.6871 19.142 16.7034 19.1062L16.8075 18.9176C16.8432 18.8493 16.8823 18.7777 16.918 18.7062C17.0611 18.4232 17.1977 18.124 17.3278 17.8248C17.588 17.2232 17.8254 16.6052 18.0531 15.9873C17.8222 16.5499 17.5913 17.0931 17.3701 17.6004C17.1522 18.1045 16.9408 18.5793 16.7522 18.9761Z" fill="url(#paint6_linear)"/>
<path d="M10.4071 18.7999C10.2803 19.1446 10.1632 19.4243 10.0331 19.6845C10.0169 19.717 10.0006 19.7495 9.98434 19.782L9.95182 19.8406L9.91604 19.9024L9.84124 20.0227L9.80221 20.0845L9.75993 20.143C9.64936 20.2992 9.51602 20.4422 9.35666 20.5561C9.52252 20.452 9.67537 20.3154 9.80872 20.1495C9.49975 20.5528 9.1355 20.7902 8.74198 20.8098C8.5501 20.8163 8.38098 20.748 8.22487 20.6569C8.06877 20.5626 7.92241 20.4357 7.78582 20.2861C7.65248 20.143 7.50288 19.9382 7.43133 19.8308C7.34352 19.7007 7.25896 19.5641 7.1744 19.4145C7.16139 19.421 7.05732 19.3105 6.98577 19.1804C6.60851 18.5429 6.32882 17.8762 6.05888 17.3624C5.74666 16.7119 5.46697 16.0517 5.2198 15.5346C5.16451 15.4013 5.01491 15.1541 4.89458 14.8939C4.75798 14.572 4.62789 14.2467 4.4978 13.9248C4.4978 13.941 4.50105 13.9573 4.50105 13.9703C4.60187 14.237 4.7092 14.5037 4.82628 14.7671C5.17427 15.5541 5.5873 16.4713 5.95806 17.2518C6.26377 17.899 6.57924 18.5267 6.93373 19.1348C7.0248 19.2877 7.11586 19.4373 7.21343 19.5869C7.26221 19.6617 7.31099 19.7365 7.36303 19.8113L7.44108 19.9219L7.5419 20.0552C7.86713 20.4748 8.25089 20.852 8.73873 20.8553C8.86557 20.8455 8.9859 20.8228 9.10298 20.7805C9.15827 20.7545 9.21681 20.7317 9.26884 20.6992L9.35015 20.6504L9.42495 20.5951C9.62334 20.4455 9.79246 20.2406 9.9323 20.0195C9.96808 19.9642 10.0039 19.9089 10.0364 19.8503C10.0656 19.7983 10.0852 19.7625 10.1079 19.7203C10.1535 19.6357 10.1925 19.5511 10.2315 19.4698C10.3063 19.304 10.3746 19.1348 10.4364 18.969C10.5925 18.5494 10.7031 18.1234 10.8202 17.7071C11.1519 16.4452 11.5259 14.9264 11.6267 14.0744C11.6462 13.9313 11.7145 13.6581 11.7178 13.5117C11.5161 14.6305 11.2007 16.0159 10.8169 17.4047C10.6901 17.8209 10.6185 18.2502 10.4071 18.7999Z" fill="url(#paint7_linear)"/>
<path d="M9.33064 19.8504C9.36967 19.7691 9.4152 19.6715 9.46399 19.561C9.49 19.5024 9.51602 19.4374 9.54855 19.3723C9.58107 19.304 9.61034 19.226 9.64286 19.1479C9.7697 18.8292 9.90954 18.4357 10.0461 17.9966C10.3226 17.1185 10.599 16.0615 10.8462 15.0696C11.0901 14.0777 11.308 13.1508 11.4479 12.5296C11.6202 11.7686 11.7373 11.3068 11.5649 11.5474C11.4934 11.8044 11.4251 12.0678 11.3633 12.3312L11.321 12.5133L11.2885 12.6564C11.269 12.7508 11.2462 12.8451 11.2267 12.9426C11.1421 13.3232 11.0576 13.7069 10.973 14.0874C10.8007 14.8485 10.6218 15.5932 10.4332 16.2664C10.2868 16.8096 10.0169 17.8698 9.73067 18.6861C9.65912 18.891 9.58757 19.0796 9.51928 19.2422C9.48675 19.3236 9.45423 19.3984 9.42171 19.4666C9.39894 19.5252 9.37292 19.5772 9.35341 19.6228C9.31113 19.7171 9.27861 19.7886 9.26885 19.8309C9.25584 19.8699 9.2721 19.8829 9.33064 19.8504Z" fill="url(#paint8_linear)"/>
<path d="M1.62598 4.85772C1.92518 5.85941 2.35773 7.06924 2.76101 8.19127C2.47156 7.25787 2.03576 6.04479 1.64224 4.86423C1.63248 4.85772 1.62923 4.85447 1.62598 4.85772Z" fill="url(#paint9_linear)"/>
<path d="M3.75317 11.9644C3.7566 11.9712 3.76002 11.9781 3.76344 11.9849C3.76344 11.9781 3.76002 11.9678 3.76002 11.9609C3.7566 11.9609 3.7566 11.9609 3.75317 11.9644Z" fill="url(#paint10_linear)"/>
<path d="M1.88292 5.37175C1.84064 5.24166 1.78536 5.11482 1.73657 5.02051C1.78861 5.1571 1.84064 5.3002 1.89268 5.44005C1.88943 5.41728 1.88618 5.39452 1.88292 5.37175Z" fill="url(#paint11_linear)"/>
<path d="M19.9428 13.0671C19.7899 13.5614 19.6305 14.059 19.4614 14.5631C19.5557 14.3192 19.6501 14.0753 19.7476 13.8281L19.4549 14.6282C19.4061 14.755 19.3606 14.8819 19.3118 15.0087C19.0256 15.8478 18.7167 16.7129 18.3524 17.6137C18.6354 16.8917 18.902 16.147 19.1655 15.3925C18.8728 16.1405 18.5638 16.9015 18.2321 17.6495C18.0662 18.0235 17.8971 18.3943 17.7182 18.7553C17.5393 19.1163 17.354 19.4708 17.1361 19.7992C17.0775 19.8871 17.0125 19.9781 16.9377 20.0659C16.8629 20.1537 16.7751 20.2383 16.6677 20.2936C16.5604 20.3554 16.4238 20.3391 16.31 20.2903C16.1962 20.2383 16.0954 20.157 16.0075 20.0627C15.9197 19.9684 15.8384 19.8643 15.7636 19.7505C15.6888 19.6399 15.6173 19.5163 15.5555 19.4025C15.4319 19.1748 15.3246 18.9439 15.227 18.7162C15.214 18.7 15.201 18.6837 15.188 18.6675C15.162 18.5959 15.1359 18.5276 15.1132 18.4561C15.0611 18.3422 15.0026 18.2154 14.9668 18.1406C14.6058 17.1714 14.3001 16.186 14.0107 15.1453C13.9846 15.0575 13.9554 14.9664 13.9294 14.8786C13.8448 14.6054 13.7537 14.1891 13.6822 13.9159C13.7895 14.3355 13.9001 14.7453 14.0107 15.1485C14.1895 15.7274 14.3619 16.238 14.5408 16.7616C14.7197 17.2853 14.8953 17.8251 15.1164 18.4593C15.1522 18.5374 15.1847 18.6122 15.2075 18.6642C15.214 18.6805 15.2238 18.7 15.2303 18.7195C15.3343 18.8658 15.4709 19.152 15.6563 19.4838C15.7506 19.6496 15.8579 19.8253 15.988 19.9846C16.0563 20.0627 16.1279 20.1407 16.2124 20.1993C16.297 20.2578 16.3946 20.3033 16.4954 20.3131C16.4596 20.3033 16.4596 20.2968 16.4791 20.2936C16.4986 20.2903 16.5377 20.2936 16.5832 20.2806C16.671 20.2578 16.7556 20.1863 16.7523 20.17C16.9149 20.0269 17.0287 19.848 17.1296 19.6789C17.1816 19.5943 17.2239 19.5098 17.2694 19.4252C17.3182 19.3342 17.3605 19.2431 17.406 19.152C17.5784 18.7878 17.7247 18.4268 17.8516 18.0983C18.2711 17.0511 18.7134 16.0071 18.9801 15.051C19.0516 14.7745 19.263 14.2509 19.3931 13.8444C19.4419 13.672 19.4939 13.4834 19.5492 13.2915C19.4744 13.4866 19.3996 13.6818 19.3216 13.8769C19.2891 13.942 19.5753 13.0899 19.8387 12.2313C20.1054 11.3727 20.3558 10.5076 20.3038 10.5661C20.3038 10.5661 20.2972 10.5759 20.2907 10.5986C20.2842 10.6214 20.2712 10.6539 20.2582 10.693C20.2322 10.7775 20.1932 10.8979 20.1411 11.0507C20.0436 11.3564 19.9037 11.7857 19.7444 12.2768C19.4224 13.2622 18.9964 14.4981 18.6061 15.5128C18.4109 15.89 18.5313 15.09 18.6158 14.8201C18.6223 14.7908 18.6321 14.755 18.6419 14.7225C18.5248 15.025 18.4077 15.3242 18.2874 15.6201C18.1182 16.0982 17.9394 16.5763 17.7507 17.0478C17.6011 17.4284 17.4418 17.8056 17.2759 18.1764C17.1914 18.3618 17.1068 18.5439 17.0157 18.7195C16.9702 18.8073 16.9247 18.8951 16.8791 18.9829L16.8076 19.1098L16.7816 19.1553L16.7686 19.1781C16.7686 19.1683 16.8369 19.0447 16.8759 18.9569C16.9214 18.8626 16.967 18.7683 17.0092 18.6707C17.0483 18.5764 17.0905 18.4788 17.1328 18.3813C17.471 17.5845 17.8743 16.6283 18.2809 15.6234C18.476 15.0802 18.6581 14.5371 18.837 13.9972C18.8402 13.981 18.8435 13.968 18.85 13.955C18.5996 14.6347 18.3296 15.3242 18.0565 15.9876C17.832 16.6055 17.5914 17.2235 17.3312 17.8251C17.2011 18.1276 17.0645 18.4235 16.9214 18.7065C16.8856 18.778 16.8499 18.8463 16.8108 18.9179L16.7068 19.1065C16.6905 19.1423 16.6677 19.1813 16.645 19.2171C16.658 19.1878 16.671 19.1618 16.6808 19.1358C16.684 19.1228 16.6905 19.1098 16.6938 19.0968C16.6905 19.0968 16.7068 19.0675 16.7198 19.0447L16.7556 18.9764C16.9442 18.5764 17.1556 18.1048 17.3767 17.5975C17.5979 17.0901 17.8288 16.5437 18.0597 15.9844C18.489 14.807 18.8728 13.6232 19.224 12.4687C18.9541 13.2427 18.6386 14.1208 18.3654 14.8786C18.0955 15.6429 17.8223 16.3876 17.5328 17.1031C17.3897 17.4609 17.2401 17.8121 17.0873 18.1504C17.0092 18.3195 16.9312 18.4853 16.8499 18.6479C16.8108 18.7293 16.7686 18.8073 16.7263 18.8854L16.6645 18.9992L16.6352 19.0512L16.632 19.061C16.6222 19.087 16.6092 19.1163 16.5897 19.1423C16.5734 19.1683 16.5474 19.2041 16.5149 19.2073C16.4824 19.2106 16.4531 19.1911 16.4271 19.1716C16.4011 19.1488 16.3783 19.1228 16.3555 19.0903L16.349 19.0805L16.3458 19.0772C16.3458 19.0772 16.3458 19.0772 16.3425 19.0707L16.3263 19.0447L16.2677 18.9341C16.2287 18.8593 16.1929 18.7813 16.1571 18.7032C16.0856 18.5471 16.014 18.3813 15.9457 18.2154C15.8124 17.8804 15.6888 17.5324 15.5685 17.1812C15.4286 16.8462 15.3018 16.508 15.1945 16.1567C14.9408 15.3534 14.7001 14.3908 14.4692 13.5679C14.4757 13.7143 14.3684 13.298 14.3521 13.3013C14.2839 13.0964 14.2156 12.885 14.1505 12.6638C14.1115 12.537 14.0757 12.4101 14.0367 12.2801C13.9879 12.1077 13.9359 11.9386 13.8806 11.7662C13.7732 11.4247 13.6562 11.08 13.5163 10.7905C13.3765 10.5011 13.2236 10.2864 13.0578 10.1238C13.009 10.0783 12.9862 10.0523 12.9602 10.0263C12.9472 10.0132 12.9342 10.0002 12.9179 9.98397C12.8984 9.97096 12.8789 9.9547 12.8464 9.93519C12.8106 9.92218 12.7683 9.90917 12.7228 9.89941C12.7 9.89291 12.674 9.88966 12.648 9.88966C12.635 9.88641 12.622 9.88966 12.6089 9.89291C12.5959 9.89616 12.5829 9.89941 12.5699 9.90267C12.4691 9.93519 12.3976 9.98397 12.3293 10.0425C12.1992 10.1628 12.0886 10.3124 11.9813 10.5011C11.7634 10.8686 11.5845 11.4377 11.4316 12.0134C11.3926 12.1565 11.3568 12.3028 11.3178 12.4492C11.2918 12.5565 11.2658 12.6606 11.2365 12.7679C11.1845 12.976 11.1324 13.1874 11.0804 13.4021C10.9763 13.8249 10.869 14.2542 10.7617 14.677C10.6609 15.1095 10.5535 15.5421 10.4332 15.9779C10.5405 15.5518 10.6511 15.116 10.7617 14.677C10.8788 14.1859 10.9861 13.698 11.0934 13.2102C11.1487 12.9663 11.204 12.7224 11.256 12.4784L11.3178 12.2215L11.3861 11.9548C11.4316 11.776 11.4804 11.5971 11.5325 11.4247C11.4674 11.6361 11.4056 11.854 11.3503 12.0687C11.3211 12.176 11.295 12.2866 11.2658 12.3939L11.2072 12.6346C11.1389 12.9273 11.0706 13.22 11.0056 13.5094C10.8722 14.0883 10.7454 14.6607 10.6088 15.2298C10.4722 15.799 10.3324 16.3616 10.1763 16.921C10.0202 17.4804 9.85104 18.0333 9.63965 18.5699C9.5746 18.7325 9.50956 18.8919 9.43801 19.0415C9.40223 19.1163 9.36646 19.1943 9.32743 19.2659C9.30792 19.3016 9.28841 19.3374 9.26889 19.3732L9.24613 19.4122C9.23962 19.422 9.23312 19.435 9.22661 19.448C9.17133 19.5391 9.10953 19.6301 9.03148 19.7049C8.99245 19.744 8.95017 19.7765 8.90139 19.8057C8.85261 19.8318 8.80057 19.848 8.74528 19.8513C8.68674 19.8545 8.63145 19.8285 8.58267 19.7992C8.53389 19.7667 8.48835 19.7309 8.44608 19.6887C8.4038 19.6496 8.36477 19.6041 8.32574 19.5586L8.27045 19.4903L8.24444 19.4545L8.20541 19.4025C8.00052 19.1195 7.81189 18.8138 7.63301 18.5016C7.27527 17.8772 6.95004 17.2332 6.63783 16.5795C6.26707 15.799 5.9386 14.9957 5.62963 14.1891C5.66541 14.2542 5.70118 14.316 5.73696 14.3778C5.34994 13.3728 4.97918 12.4036 4.58566 11.3792C4.54989 11.2849 4.51411 11.1938 4.47834 11.0995C3.66528 8.98228 3.02784 7.14151 2.32861 4.93974C2.15624 4.39987 1.97411 3.86325 1.8115 3.32013C1.6749 2.91685 1.79199 3.62259 1.57408 2.94612C1.58059 2.98515 1.58709 3.02092 1.59035 3.05344C1.76272 3.5673 1.93183 4.01285 1.94484 4.16571C1.94159 4.37385 1.60661 3.40143 1.35944 2.79326C1.34318 2.78025 1.32366 2.75749 1.30415 2.72497C1.30415 2.72497 1.27813 2.63716 1.24561 2.52983C1.23585 2.50707 1.22609 2.4908 1.21634 2.47129C1.20333 2.50056 1.17406 2.4778 1.14154 2.43877C1.21309 2.67943 1.28138 2.91685 1.35293 3.15751C1.2391 2.94937 1.14479 2.73147 1.01145 2.36397C1.01145 2.36397 1.01145 2.36397 1.01145 2.36722C1.00819 2.35746 1.00494 2.35096 1.00494 2.3412C0.978924 2.2664 0.952906 2.18835 0.920384 2.10054C1.26837 3.7234 0.770781 2.24363 0.445557 1.6875C0.478079 1.8306 0.526862 2.00297 0.585403 2.1916C0.572394 2.19485 0.543124 2.20461 0.543124 2.20461C0.868348 3.45347 1.06348 4.28929 1.33667 5.40156C1.40822 5.678 1.34968 5.69752 1.48302 6.10405C1.83426 7.1903 2.18225 8.2798 2.56927 9.35629C2.99206 10.5011 3.4116 11.6133 3.83765 12.7126C4.26694 13.8119 4.70274 14.8981 5.16781 15.9876C5.16456 15.9714 5.16456 15.9648 5.16781 15.9648C5.39222 16.4917 5.62313 17.0186 5.8703 17.5519C6.11422 18.0788 6.34513 18.4561 6.62482 18.9797C6.8167 19.3342 7.01834 19.6887 7.26226 20.0432L7.30779 20.1115L7.34356 20.1602L7.38259 20.2123C7.43463 20.2806 7.48666 20.3489 7.54195 20.4139C7.65253 20.544 7.76961 20.6676 7.89645 20.7684C8.14687 20.9733 8.42656 21.1034 8.73552 21.1066C8.81358 21.1001 8.89163 21.0936 8.96969 21.0806C9.00871 21.0774 9.04449 21.0644 9.08351 21.0546C9.12254 21.0449 9.15832 21.0351 9.19409 21.0188C9.34044 20.9668 9.47704 20.8822 9.60387 20.7912C9.8608 20.5928 10.0722 20.3229 10.2511 20.0269L10.3031 19.9358C10.3161 19.9098 10.3291 19.8871 10.3421 19.8643C10.3682 19.8155 10.3942 19.7667 10.4202 19.7179C10.469 19.6204 10.5145 19.5261 10.5568 19.4317C10.6413 19.2399 10.7194 19.0512 10.7909 18.8658C11.0706 18.1146 11.2788 17.3796 11.4739 16.6446C11.6658 15.9096 11.8382 15.1778 12.0073 14.4526C12.0918 14.0916 12.1764 13.7273 12.261 13.3663L12.391 12.8264L12.4073 12.7614L12.4106 12.7451L12.4171 12.7094L12.4333 12.6378C12.4301 12.5435 12.4398 12.4232 12.4658 12.2866C12.4398 12.3581 12.4171 12.4264 12.3878 12.5012C12.391 12.3776 12.4106 12.2248 12.4496 12.0524C12.4724 11.9678 12.4951 11.8735 12.5406 11.7857C12.5634 11.7434 12.5927 11.6979 12.6382 11.6881C12.6805 11.6816 12.713 11.7077 12.739 11.7304C12.8431 11.8378 12.9114 11.9971 12.983 12.176C13.0187 12.2638 13.0545 12.3581 13.087 12.4557L13.1391 12.6053L13.1651 12.6833L13.2074 12.8232C13.4285 13.5647 13.6334 14.3192 13.835 15.0217C14.0334 15.7242 14.2286 16.3746 14.4172 16.9145C14.6286 17.5292 14.8465 18.1634 15.1164 18.8008C15.1847 18.9602 15.2563 19.1195 15.3343 19.2789C15.3734 19.3569 15.4156 19.4382 15.4547 19.5163L15.5295 19.6529L15.6108 19.7862C15.7213 19.9619 15.8449 20.1245 15.9945 20.2578C16.0693 20.3229 16.1474 20.3846 16.2385 20.4237C16.3263 20.466 16.4238 20.492 16.5246 20.492C16.6255 20.4887 16.7198 20.4464 16.8011 20.3912C16.8824 20.3359 16.9604 20.2708 17.0287 20.196C17.1686 20.0497 17.2922 19.8773 17.4028 19.7017C17.4288 19.6594 17.4613 19.6106 17.4841 19.5683L17.5524 19.448C17.5979 19.3667 17.6434 19.2886 17.6857 19.2073C17.7735 19.0447 17.8548 18.8821 17.9361 18.7162C18.2581 18.056 18.5475 17.3731 18.8272 16.6803C19.3313 15.2949 19.8029 13.8541 20.2712 12.3809C19.8614 13.7306 19.4126 15.1063 18.863 16.5893C19.4549 15.1128 20.0078 13.594 20.5379 12.0654C21.0908 10.3352 21.6372 8.68308 22.1608 6.91386C22.2746 6.50082 22.3982 6.09429 22.4535 5.8146C22.4763 5.60971 22.4958 5.40481 22.512 5.22269C22.3527 5.76256 22.1966 6.31869 22.0665 6.79677C22.0795 6.73498 22.0665 6.73823 22.0567 6.73498C21.8291 7.47324 21.686 8.00986 21.442 8.77414C21.7152 7.66838 22.1315 6.34471 22.525 5.01129C22.5283 4.93649 22.5283 4.86819 22.5283 4.80965C21.6795 7.55129 20.8209 10.3612 19.9428 13.0671ZM14.7001 15.851C14.9538 16.612 15.214 17.4284 15.523 18.2349C15.601 18.4366 15.6823 18.6349 15.7701 18.8301C15.8124 18.9276 15.8579 19.0252 15.9067 19.1163C15.9295 19.1618 15.9523 19.2106 15.9783 19.2561C15.9978 19.2886 16.0108 19.3147 16.0303 19.3472C16.1019 19.4643 16.1767 19.5781 16.2775 19.6692C16.3263 19.7147 16.3848 19.7505 16.4498 19.7667C16.4661 19.77 16.4824 19.7732 16.4986 19.7732C16.5149 19.7765 16.5312 19.7732 16.5474 19.77C16.5799 19.7635 16.6125 19.7472 16.6385 19.7277C16.7165 19.6692 16.7751 19.5878 16.8239 19.513C16.8791 19.4317 16.9279 19.3569 16.9702 19.2854C17.0027 19.2301 17.0385 19.1748 17.071 19.1228C17.1068 19.0642 17.1393 19.0057 17.1751 18.9504C17.1946 18.9146 17.2141 18.8789 17.2304 18.8431C17.2206 18.8626 17.2109 18.8854 17.2011 18.9081C17.406 18.5601 17.5979 18.2154 17.8093 17.7731L17.8516 17.6398L17.8938 17.6593C17.7898 17.9585 17.6629 18.2674 17.5166 18.5764C17.445 18.7325 17.367 18.8854 17.2824 19.0382C17.2011 19.1846 17.1003 19.3602 17.0385 19.4513C16.967 19.5618 16.8889 19.6659 16.7978 19.7602C16.7523 19.8057 16.7035 19.8513 16.645 19.8838C16.6157 19.9001 16.5864 19.9131 16.5539 19.9196C16.5214 19.9261 16.4889 19.9228 16.4564 19.9163C16.3263 19.8871 16.2254 19.7927 16.1409 19.6984C16.0563 19.6009 15.9848 19.4935 15.9197 19.3797C15.897 19.3407 15.8807 19.3147 15.8514 19.2594L15.7734 19.1098C15.7246 19.0089 15.6758 18.9081 15.627 18.8008C15.5327 18.5927 15.4449 18.3748 15.3636 18.1569C15.1977 17.7178 15.0481 17.2657 14.9018 16.8104C14.6123 15.8998 14.3489 14.9794 14.0692 14.0981C13.9846 13.8249 13.8903 13.4086 13.8188 13.1354C14.1212 14.0981 14.3977 14.9079 14.7001 15.851ZM1.88305 5.37229C1.8863 5.39506 1.88955 5.41782 1.8928 5.44059C1.84077 5.30074 1.78873 5.15764 1.7367 5.02105C1.78873 5.11536 1.84077 5.2422 1.88305 5.37229ZM1.62612 4.85844C1.62937 4.85844 1.63588 4.86169 1.63913 4.86494C2.0359 6.04551 2.4717 7.25534 2.7579 8.19199C2.35788 7.06671 1.92533 5.85688 1.62612 4.85844ZM3.75309 11.9646C3.75634 11.9646 3.75634 11.9613 3.75959 11.9613C3.75959 11.9678 3.76284 11.9776 3.76284 11.9841C3.75959 11.9776 3.75634 11.9711 3.75309 11.9646ZM9.26564 19.8285C9.2754 19.7862 9.30792 19.7147 9.3502 19.6204C9.37296 19.5716 9.39573 19.5228 9.4185 19.4643C9.44777 19.396 9.48029 19.3212 9.51606 19.2399C9.58436 19.0772 9.65591 18.8886 9.72746 18.6837C10.0137 17.8674 10.2836 16.8104 10.4299 16.2641C10.6186 15.5876 10.7974 14.8428 10.9698 14.0851C11.0544 13.7045 11.1389 13.3208 11.2235 12.9403C11.2463 12.8459 11.2658 12.7484 11.2853 12.6541L11.3178 12.511L11.3601 12.3288C11.4219 12.0654 11.4902 11.802 11.5617 11.545C11.7341 11.3076 11.617 11.7662 11.4446 12.5272C11.3048 13.1484 11.0869 14.072 10.843 15.0672C10.5958 16.0592 10.3194 17.1194 10.0429 17.9942C9.90633 18.4333 9.76649 18.8268 9.63965 19.1455C9.60713 19.2236 9.57786 19.3016 9.54533 19.3699C9.51606 19.4382 9.48679 19.5 9.46077 19.5586C9.41199 19.6692 9.36646 19.7667 9.32743 19.848C9.27215 19.8838 9.25588 19.8708 9.26564 19.8285ZM11.6235 14.0785C11.5227 14.9306 11.1487 16.4494 10.817 17.7113C10.6999 18.1308 10.5893 18.5536 10.4332 18.9732C10.3714 19.139 10.3031 19.3049 10.2283 19.474C10.1893 19.5586 10.1503 19.6399 10.1047 19.7244C10.082 19.7667 10.0624 19.8057 10.0332 19.8545C10.0006 19.9131 9.96813 19.9684 9.9291 20.0236C9.78925 20.2448 9.62013 20.4464 9.42175 20.5993L9.34695 20.6546L9.26564 20.7034C9.2136 20.7391 9.15506 20.7587 9.09978 20.7847C8.9827 20.8269 8.86236 20.8497 8.73552 20.8595C8.24769 20.853 7.86392 20.479 7.5387 20.0594L7.43788 19.9261L7.35983 19.8155C7.30779 19.7407 7.25575 19.6659 7.21022 19.5911C7.11266 19.4415 7.01834 19.2886 6.93053 19.139C6.57278 18.5309 6.25732 17.9032 5.95486 17.256C5.5841 16.4754 5.17107 15.5583 4.82308 14.7713C4.706 14.5078 4.59867 14.2379 4.49785 13.9745C4.49785 13.9615 4.4946 13.9452 4.4946 13.9289C4.62469 14.2542 4.75803 14.5761 4.89137 14.8981C5.01171 15.1583 5.16131 15.4055 5.2166 15.5388C5.46377 16.0592 5.74346 16.7194 6.05568 17.3666C6.32236 17.8772 6.60531 18.5439 6.98257 19.1846C7.05411 19.3147 7.15819 19.4285 7.1712 19.4187C7.25575 19.5683 7.34031 19.7082 7.42812 19.835C7.49967 19.9423 7.64928 20.1472 7.78262 20.2903C7.91921 20.4399 8.06556 20.5668 8.22167 20.6611C8.37778 20.7522 8.54689 20.8204 8.73878 20.8139C9.1323 20.7977 9.49655 20.557 9.80551 20.1537C9.67217 20.3164 9.51932 20.4562 9.35345 20.5603C9.51281 20.4432 9.64615 20.3001 9.75673 20.1472L9.79901 20.0887L9.83803 20.0269L9.91284 19.9066L9.94861 19.8448L9.98113 19.7862C10.0006 19.7537 10.0169 19.7212 10.0299 19.6887C10.16 19.4285 10.2738 19.1488 10.4039 18.8041C10.6186 18.2544 10.6869 17.8219 10.8137 17.4088C11.1942 16.0234 11.5129 14.6347 11.7146 13.5159C11.7113 13.6623 11.643 13.9387 11.6235 14.0785Z" fill="url(#paint12_linear)"/>
<path d="M22.6876 5.71667C22.7006 5.67114 22.7136 5.62886 22.7299 5.58008C22.6779 5.70041 22.6779 5.71342 22.6876 5.71667Z" fill="url(#paint13_linear)"/>
<path d="M0.513741 0.864258C0.510489 0.864258 0.503985 0.870762 0.500732 0.870762C0.530003 0.958573 0.55602 1.03988 0.578786 1.11468C0.543011 0.984591 0.513741 0.864258 0.513741 0.864258Z" fill="url(#paint14_linear)"/>
<path d="M0.796788 1.23438C0.793535 1.24413 0.790283 1.24738 0.790283 1.25389C0.80004 1.2734 0.809797 1.29292 0.819554 1.31568C0.809797 1.28966 0.803292 1.26039 0.796788 1.23438Z" fill="url(#paint15_linear)"/>
<path d="M0.334981 0.906515C0.299206 0.766668 0.23091 0.480471 0.201639 0.327615C0.143099 0.181264 0.143099 0.340624 0.113828 0.347129C0.0975671 0.269075 0.0845585 0.191021 0.0715495 0.132481C0.0585406 0.0706878 0.0487835 0.0251563 0.042279 0.0251563C0.0292701 0.00239053 0.0195135 -0.00411387 0.013009 0.00239063C0.00650454 0.00889512 0 0.0251564 0 0.0674356C0 0.148742 0.0130089 0.272327 0.0390268 0.418678C0.18863 0.727641 0.383765 1.24475 0.500846 1.48542C0.621179 1.72608 0.650449 1.69356 0.500846 0.867488C0.44881 0.903263 0.422792 1.0236 0.334981 0.906515Z" fill="url(#paint16_linear)"/>
<path d="M0.585449 1.14033C0.709034 1.51434 0.800097 1.73224 0.910673 1.94363C0.842376 1.70297 0.777332 1.4623 0.712287 1.21838C0.660251 1.15334 0.598458 1.05577 0.585449 1.14033Z" fill="url(#paint17_linear)"/>
<path d="M22.6877 5.71652C22.6779 5.71327 22.6779 5.70026 22.73 5.57993C22.7137 5.62871 22.7007 5.67424 22.6877 5.71652C22.6942 5.71977 22.7104 5.71652 22.6974 5.77832C22.8275 5.30024 22.9804 4.74085 23.1365 4.20098C23.143 4.12617 23.1462 4.05463 23.1495 3.98633C22.7625 5.323 22.3494 6.64992 22.0828 7.75893C22.3234 6.99465 22.4633 6.45803 22.6877 5.71652Z" fill="url(#paint18_linear)"/>
<path d="M23.0908 3.86023C23.1038 3.8147 23.1168 3.76916 23.1298 3.72363C23.081 3.84397 23.081 3.85698 23.0908 3.86023Z" fill="url(#paint19_linear)"/>
<path d="M13.2203 13.0147C13.191 12.9236 13.1585 12.8326 13.1292 12.7415L13.1162 12.709L13.1097 12.6927L13.1065 12.683L13.0935 12.6505L13.0675 12.5887C13.0317 12.5074 12.9959 12.4326 12.9634 12.3643C12.9926 12.4423 13.0219 12.5269 13.0544 12.6147L13.0772 12.6797L13.0935 12.7285L13.1162 12.8001C13.1455 12.8944 13.1715 12.9919 13.2008 13.0863C13.3114 13.47 13.4187 13.8505 13.5228 14.2213C13.7309 14.9628 13.9293 15.6588 14.1212 16.2507C13.9293 15.5645 13.7537 14.875 13.5748 14.1823C13.4577 13.766 13.3406 13.3822 13.2203 13.0147Z" fill="url(#paint20_linear)"/>
<path d="M12.6349 12.1203C12.6056 12.1333 12.5861 12.1658 12.5699 12.1918C12.5536 12.2211 12.5406 12.2504 12.5308 12.2829C12.4886 12.4032 12.4593 12.5203 12.4365 12.6309C12.4365 12.6569 12.4365 12.6797 12.4398 12.7024C12.4853 12.5886 12.5081 12.4976 12.5438 12.3707C12.5536 12.3414 12.5634 12.3089 12.5764 12.2731C12.5894 12.2406 12.6056 12.2048 12.6317 12.1821C12.6609 12.1626 12.6837 12.1788 12.7032 12.1853C12.7227 12.1951 12.7357 12.2081 12.752 12.2244C12.739 12.1983 12.7227 12.1756 12.7032 12.1528C12.6902 12.1366 12.6674 12.1105 12.6349 12.1203Z" fill="url(#paint21_linear)"/>
<path d="M12.7261 11.9155C12.7001 11.8927 12.6643 11.8667 12.622 11.8927C12.583 11.922 12.5602 11.9675 12.544 12.013C12.5082 12.1041 12.4887 12.1919 12.4724 12.2765C12.5017 12.2017 12.5277 12.1236 12.57 12.0456C12.5895 12.0098 12.622 11.9642 12.661 11.9675C12.6968 11.974 12.7228 11.9968 12.7423 12.0195C12.8269 12.1106 12.8887 12.2212 12.9635 12.3643C12.9277 12.2732 12.8952 12.1887 12.8562 12.1139C12.8171 12.0358 12.7781 11.9675 12.7261 11.9155Z" fill="url(#paint22_linear)"/>
<path d="M19.4125 12.3906C19.4255 12.293 19.4418 12.1629 19.4678 11.9873C19.4548 12.0231 19.4418 12.0589 19.4321 12.0946C19.2434 12.7223 19.045 13.3565 18.8369 13.9939C18.7621 14.2574 18.6905 14.511 18.6353 14.7257C18.7816 14.3452 18.928 13.9614 19.0645 13.5809C19.2369 12.9662 19.3442 12.5987 19.4125 12.3906Z" fill="url(#paint23_linear)"/>
<path d="M19.4127 12.3895C19.3119 13.2286 19.6761 11.5732 19.4127 12.3895V12.3895Z" fill="url(#paint24_linear)"/>
<path d="M18.8694 16.582C18.8564 16.6113 18.8434 16.6438 18.8337 16.6731C18.8011 16.7609 18.7686 16.852 18.7361 16.9398C18.7816 16.8162 18.8239 16.7024 18.8694 16.582Z" fill="url(#paint25_linear)"/>
<path d="M15.1685 17.3333C15.3376 17.8601 15.523 18.387 15.7474 18.8716C15.5263 18.3707 15.3409 17.8341 15.1685 17.3203C14.9994 16.8032 14.8433 16.3056 14.7002 15.8535C14.736 15.9901 14.7587 16.13 14.7978 16.2666C14.9018 16.53 15.0449 16.9268 15.1685 17.3333Z" fill="url(#paint26_linear)"/>
<path d="M16.7456 20.1726C16.8464 20.101 16.931 20.0067 17.009 19.9124C17.0871 19.8148 17.1586 19.714 17.2237 19.6132C17.2887 19.5124 17.3538 19.4051 17.4188 19.2945C17.4806 19.1839 17.5424 19.0733 17.6009 18.9628C17.8319 18.5205 18.0367 18.0651 18.2351 17.6098C18.6319 16.6959 18.9897 15.7691 19.3572 14.8292C19.5555 14.247 19.7474 13.6616 19.9393 13.0664C20.0824 12.6079 20.219 12.1493 20.3523 11.6907C21.0126 9.50848 21.8451 6.98149 22.5183 4.63012C22.4956 4.54881 22.4565 4.52605 22.385 4.5976C21.5687 7.12459 20.8434 9.68085 19.9556 12.1786C19.9491 12.1981 19.9458 12.2176 19.9393 12.2404C19.6564 13.3429 19.0059 15.0666 18.5441 16.4032C18.3197 17.0765 18.0725 17.7399 17.7928 18.3871C17.653 18.7123 17.5034 19.0311 17.3375 19.34L17.2757 19.4538L17.2139 19.5612C17.1717 19.6327 17.1294 19.7043 17.0806 19.7758C16.9863 19.9157 16.8822 20.0588 16.7456 20.1726Z" fill="url(#paint27_linear)"/>
<path d="M13.1357 13.0178C13.1162 12.9593 13.0999 12.9008 13.0804 12.8422L13.0512 12.7577L13.0381 12.7154C13.0349 12.7024 13.0316 12.7024 13.0284 12.6959C13.0089 12.6503 12.9894 12.6048 12.9699 12.5658C12.8918 12.4032 12.8235 12.2958 12.752 12.2275C12.8235 12.3609 12.8788 12.517 12.9373 12.6894L12.9438 12.7121L12.9536 12.7414C12.9666 12.7869 12.9796 12.8325 12.9959 12.878C13.0219 12.9691 13.0512 13.0601 13.0772 13.1512C13.1292 13.3333 13.1812 13.5122 13.2333 13.691C13.3374 14.0488 13.4382 14.4 13.539 14.748C13.7406 15.444 13.9423 16.1237 14.1667 16.8067C13.8707 15.792 13.6138 14.7708 13.3471 13.7496C13.2821 13.4927 13.2105 13.252 13.1357 13.0178Z" fill="url(#paint28_linear)"/>
<path d="M18.6224 17.4503C18.3948 17.9804 18.1606 18.504 17.9004 19.0146C17.8354 19.1414 17.7671 19.2683 17.6988 19.3951C17.663 19.4569 17.6272 19.522 17.5915 19.5837L17.5622 19.6325L17.5264 19.6878C17.5037 19.7268 17.4809 19.7626 17.4549 19.7984C17.2597 20.0911 17.0418 20.374 16.7524 20.5171C16.6808 20.5529 16.5995 20.5757 16.515 20.5757C16.4727 20.5724 16.4304 20.5724 16.3914 20.5627C16.3719 20.5594 16.3491 20.5562 16.3329 20.5497L16.2743 20.5301C16.1215 20.4716 15.9914 20.374 15.8743 20.257C15.7572 20.1399 15.6531 20 15.5588 19.8569C15.4678 19.7106 15.3735 19.5447 15.3182 19.4309C15.0645 18.93 14.8726 18.426 14.6905 17.9316C14.5116 17.4373 14.349 16.9494 14.1929 16.4714C14.1701 16.3998 14.1441 16.3218 14.1213 16.2502C14.2482 16.7088 14.3815 17.1673 14.5279 17.6226C14.6742 18.078 14.8303 18.5333 15.019 18.9821C15.0645 19.0959 15.1133 19.2065 15.1686 19.3203C15.1946 19.3756 15.2206 19.4309 15.2499 19.4894L15.2921 19.574L15.3442 19.6716C15.4222 19.8179 15.51 19.9545 15.6011 20.0846C15.6987 20.2114 15.7995 20.3285 15.9133 20.4261C16.0304 20.5204 16.154 20.5984 16.2971 20.644C16.3686 20.6667 16.4434 20.6732 16.5182 20.6798C16.593 20.6798 16.6678 20.6667 16.7361 20.6375C17.0061 20.5301 17.2207 20.3025 17.4126 20.0488C17.2825 20.2309 17.1362 20.3968 16.967 20.5171C16.8825 20.5789 16.7947 20.6277 16.6939 20.6602C16.6451 20.6732 16.593 20.683 16.5378 20.6895C16.4857 20.6863 16.4304 20.6863 16.3816 20.6732C16.3296 20.67 16.2808 20.6472 16.232 20.631C16.1865 20.6082 16.1345 20.5919 16.0922 20.5627L16.0239 20.5236L15.9589 20.4781C15.9166 20.4488 15.8775 20.4131 15.8353 20.3773C15.6759 20.2309 15.5393 20.0488 15.419 19.8504C15.3897 19.8016 15.3572 19.7529 15.3279 19.7008L15.2531 19.5642C15.2141 19.4862 15.1718 19.4081 15.136 19.3301C15.0612 19.174 14.9897 19.0179 14.9246 18.8618C14.7913 18.5495 14.671 18.2341 14.5604 17.9186C14.4238 17.5446 14.297 17.1771 14.1799 16.8096C14.401 17.5609 14.6352 18.3089 14.9442 19.0536C15.0222 19.239 15.1068 19.4244 15.2011 19.613C15.2206 19.6488 15.2629 19.7301 15.2954 19.7886L15.406 19.974C15.445 20.0326 15.4873 20.0911 15.5263 20.1496C15.5686 20.2049 15.6109 20.2602 15.6564 20.3122C15.7475 20.4098 15.8418 20.5074 15.9491 20.5789C16.0532 20.6537 16.167 20.7123 16.2906 20.748C16.4142 20.7773 16.5475 20.7968 16.6743 20.7643C16.7979 20.735 16.9085 20.6732 17.0158 20.6017C17.1882 20.4781 17.3378 20.3123 17.4744 20.1269C17.5427 20.0326 17.6077 19.9382 17.6663 19.8407L17.7118 19.7659C17.7281 19.7399 17.7411 19.7171 17.7508 19.7008L17.8126 19.5935C17.9752 19.3041 18.1151 19.0114 18.2517 18.7187C18.5216 18.1332 18.759 17.5413 18.9867 16.9494C19.442 15.7624 19.8485 14.5623 20.2323 13.359C20.3201 13.0858 20.4079 12.8158 20.4957 12.5459C20.1055 13.6549 19.7054 14.7574 19.2826 15.8437C19.0647 16.3803 18.8468 16.9169 18.6224 17.4503Z" fill="url(#paint29_linear)"/>
<path d="M19.3116 15.0081C19.3637 14.8585 19.4125 14.7089 19.4612 14.5625C19.4255 14.6503 19.3929 14.7414 19.3572 14.8292C19.2921 15.0178 19.2271 15.2064 19.1653 15.3918C19.2141 15.2617 19.2629 15.1349 19.3116 15.0081Z" fill="url(#paint30_linear)"/>
<path d="M16.0955 19.5222C16.1508 19.6035 16.2158 19.6783 16.2874 19.7368C16.3589 19.7954 16.45 19.8377 16.5443 19.8247C16.6353 19.8051 16.7069 19.7336 16.7654 19.6685C16.824 19.6002 16.8728 19.5287 16.9183 19.4572C16.9411 19.4214 16.9606 19.3856 16.9801 19.3531C17.0028 19.3108 17.0256 19.2685 17.0484 19.2295C17.1037 19.1222 17.159 19.0181 17.2077 18.914C17.198 18.927 17.1915 18.9433 17.1817 18.9563C17.1329 19.0506 17.0809 19.1449 17.0256 19.2392L16.9671 19.3401L16.915 19.4246C16.8402 19.5352 16.7589 19.6523 16.6451 19.7336C16.567 19.8019 16.4532 19.7986 16.3687 19.7531C16.2808 19.7076 16.2093 19.636 16.1443 19.558C16.0792 19.4767 16.0207 19.3889 15.9654 19.2945L15.9394 19.2523L15.9101 19.2002L15.8548 19.0929C15.819 19.0213 15.7833 18.9498 15.7507 18.875C15.8093 19.0116 15.8743 19.1417 15.9394 19.2685C15.9881 19.3596 16.0369 19.4409 16.0955 19.5222Z" fill="url(#paint31_linear)"/>
<path d="M15.9783 18.2246C15.9295 18.101 15.8417 17.8441 15.7994 17.714C15.7636 17.6359 15.7311 17.5611 15.6953 17.4863C15.7343 17.6099 15.7734 17.7335 15.8124 17.8538C15.8677 17.9774 15.923 18.1043 15.9783 18.2246Z" fill="url(#paint32_linear)"/>
<defs>
<linearGradient id="paint0_linear" x1="-0.192502" y1="17.3986" x2="25.3133" y2="17.3986" gradientUnits="userSpaceOnUse">
<stop offset="4.47534e-07" stop-color="#43BBED"/>
<stop offset="1" stop-color="#D0709A"/>
</linearGradient>
<linearGradient id="paint1_linear" x1="-0.192327" y1="15.3213" x2="25.3135" y2="15.3213" gradientUnits="userSpaceOnUse">
<stop offset="4.47534e-07" stop-color="#43BBED"/>
<stop offset="1" stop-color="#D0709A"/>
</linearGradient>
<linearGradient id="paint2_linear" x1="-0.192799" y1="14.5318" x2="25.3139" y2="14.5318" gradientUnits="userSpaceOnUse">
<stop offset="4.47534e-07" stop-color="#43BBED"/>
<stop offset="1" stop-color="#D0709A"/>
</linearGradient>
<linearGradient id="paint3_linear" x1="-0.192314" y1="16.5365" x2="25.3134" y2="16.5365" gradientUnits="userSpaceOnUse">
<stop offset="4.47534e-07" stop-color="#43BBED"/>
<stop offset="1" stop-color="#D0709A"/>
</linearGradient>
<linearGradient id="paint4_linear" x1="-0.192122" y1="16.8035" x2="25.3134" y2="16.8035" gradientUnits="userSpaceOnUse">
<stop offset="4.47534e-07" stop-color="#43BBED"/>
<stop offset="1" stop-color="#D0709A"/>
</linearGradient>
<linearGradient id="paint5_linear" x1="-0.190648" y1="18.5885" x2="25.3125" y2="18.5885" gradientUnits="userSpaceOnUse">
<stop offset="4.47534e-07" stop-color="#43BBED"/>
<stop offset="1" stop-color="#D0709A"/>
</linearGradient>
<linearGradient id="paint6_linear" x1="-0.192538" y1="17.6006" x2="25.3133" y2="17.6006" gradientUnits="userSpaceOnUse">
<stop offset="4.47534e-07" stop-color="#43BBED"/>
<stop offset="1" stop-color="#D0709A"/>
</linearGradient>
<linearGradient id="paint7_linear" x1="-0.192313" y1="17.1874" x2="25.3134" y2="17.1874" gradientUnits="userSpaceOnUse">
<stop offset="4.47534e-07" stop-color="#43BBED"/>
<stop offset="1" stop-color="#D0709A"/>
</linearGradient>
<linearGradient id="paint8_linear" x1="-0.192321" y1="15.6764" x2="25.3134" y2="15.6764" gradientUnits="userSpaceOnUse">
<stop offset="4.47534e-07" stop-color="#43BBED"/>
<stop offset="1" stop-color="#D0709A"/>
</linearGradient>
<linearGradient id="paint9_linear" x1="-0.192409" y1="6.52262" x2="25.3133" y2="6.52262" gradientUnits="userSpaceOnUse">
<stop offset="4.47534e-07" stop-color="#43BBED"/>
<stop offset="1" stop-color="#D0709A"/>
</linearGradient>
<linearGradient id="paint10_linear" x1="-0.399654" y1="11.9711" x2="26.4473" y2="11.9711" gradientUnits="userSpaceOnUse">
<stop offset="4.47534e-07" stop-color="#43BBED"/>
<stop offset="1" stop-color="#D0709A"/>
</linearGradient>
<linearGradient id="paint11_linear" x1="-0.192387" y1="5.22934" x2="25.3133" y2="5.22934" gradientUnits="userSpaceOnUse">
<stop offset="4.47534e-07" stop-color="#43BBED"/>
<stop offset="1" stop-color="#D0709A"/>
</linearGradient>
<linearGradient id="paint12_linear" x1="-0.192264" y1="11.393" x2="25.3134" y2="11.393" gradientUnits="userSpaceOnUse">
<stop offset="4.47534e-07" stop-color="#43BBED"/>
<stop offset="1" stop-color="#D0709A"/>
</linearGradient>
<linearGradient id="paint13_linear" x1="-0.19147" y1="5.65013" x2="25.3133" y2="5.65013" gradientUnits="userSpaceOnUse">
<stop offset="4.47534e-07" stop-color="#43BBED"/>
<stop offset="1" stop-color="#D0709A"/>
</linearGradient>
<linearGradient id="paint14_linear" x1="-0.192374" y1="0.98968" x2="25.3132" y2="0.98968" gradientUnits="userSpaceOnUse">
<stop offset="4.47534e-07" stop-color="#43BBED"/>
<stop offset="1" stop-color="#D0709A"/>
</linearGradient>
<linearGradient id="paint15_linear" x1="-0.192291" y1="1.27487" x2="25.3138" y2="1.27487" gradientUnits="userSpaceOnUse">
<stop offset="4.47534e-07" stop-color="#43BBED"/>
<stop offset="1" stop-color="#D0709A"/>
</linearGradient>
<linearGradient id="paint16_linear" x1="-0.192263" y1="0.809559" x2="25.3134" y2="0.809559" gradientUnits="userSpaceOnUse">
<stop offset="4.47534e-07" stop-color="#43BBED"/>
<stop offset="1" stop-color="#D0709A"/>
</linearGradient>
<linearGradient id="paint17_linear" x1="-0.192217" y1="1.52614" x2="25.3134" y2="1.52614" gradientUnits="userSpaceOnUse">
<stop offset="4.47534e-07" stop-color="#43BBED"/>
<stop offset="1" stop-color="#D0709A"/>
</linearGradient>
<linearGradient id="paint18_linear" x1="-0.192224" y1="5.87713" x2="25.3134" y2="5.87713" gradientUnits="userSpaceOnUse">
<stop offset="4.47534e-07" stop-color="#43BBED"/>
<stop offset="1" stop-color="#D0709A"/>
</linearGradient>
<linearGradient id="paint19_linear" x1="-0.196731" y1="3.79318" x2="25.3137" y2="3.79318" gradientUnits="userSpaceOnUse">
<stop offset="4.47534e-07" stop-color="#43BBED"/>
<stop offset="1" stop-color="#D0709A"/>
</linearGradient>
<linearGradient id="paint20_linear" x1="-0.192472" y1="14.3054" x2="25.3135" y2="14.3054" gradientUnits="userSpaceOnUse">
<stop offset="4.47534e-07" stop-color="#43BBED"/>
<stop offset="1" stop-color="#D0709A"/>
</linearGradient>
<linearGradient id="paint21_linear" x1="-0.192603" y1="12.4086" x2="25.3136" y2="12.4086" gradientUnits="userSpaceOnUse">
<stop offset="4.47534e-07" stop-color="#43BBED"/>
<stop offset="1" stop-color="#D0709A"/>
</linearGradient>
<linearGradient id="paint22_linear" x1="-0.192074" y1="12.1219" x2="25.3133" y2="12.1219" gradientUnits="userSpaceOnUse">
<stop offset="4.47534e-07" stop-color="#43BBED"/>
<stop offset="1" stop-color="#D0709A"/>
</linearGradient>
<linearGradient id="paint23_linear" x1="-0.192348" y1="13.3552" x2="25.3133" y2="13.3552" gradientUnits="userSpaceOnUse">
<stop offset="4.47534e-07" stop-color="#43BBED"/>
<stop offset="1" stop-color="#D0709A"/>
</linearGradient>
<linearGradient id="paint24_linear" x1="-0.193077" y1="12.3949" x2="25.3137" y2="12.3949" gradientUnits="userSpaceOnUse">
<stop offset="4.47534e-07" stop-color="#43BBED"/>
<stop offset="1" stop-color="#D0709A"/>
</linearGradient>
<linearGradient id="paint25_linear" x1="-0.192058" y1="16.76" x2="25.3132" y2="16.76" gradientUnits="userSpaceOnUse">
<stop offset="4.47534e-07" stop-color="#43BBED"/>
<stop offset="1" stop-color="#D0709A"/>
</linearGradient>
<linearGradient id="paint26_linear" x1="-0.192356" y1="17.3603" x2="25.3136" y2="17.3603" gradientUnits="userSpaceOnUse">
<stop offset="4.47534e-07" stop-color="#43BBED"/>
<stop offset="1" stop-color="#D0709A"/>
</linearGradient>
<linearGradient id="paint27_linear" x1="-0.192462" y1="12.364" x2="25.3132" y2="12.364" gradientUnits="userSpaceOnUse">
<stop offset="4.47534e-07" stop-color="#43BBED"/>
<stop offset="1" stop-color="#D0709A"/>
</linearGradient>
<linearGradient id="paint28_linear" x1="-0.19224" y1="14.5159" x2="25.3132" y2="14.5159" gradientUnits="userSpaceOnUse">
<stop offset="4.47534e-07" stop-color="#43BBED"/>
<stop offset="1" stop-color="#D0709A"/>
</linearGradient>
<linearGradient id="paint29_linear" x1="-0.192134" y1="16.6567" x2="25.3135" y2="16.6567" gradientUnits="userSpaceOnUse">
<stop offset="4.47534e-07" stop-color="#43BBED"/>
<stop offset="1" stop-color="#D0709A"/>
</linearGradient>
<linearGradient id="paint30_linear" x1="-0.192532" y1="14.9765" x2="25.3132" y2="14.9765" gradientUnits="userSpaceOnUse">
<stop offset="4.47534e-07" stop-color="#43BBED"/>
<stop offset="1" stop-color="#D0709A"/>
</linearGradient>
<linearGradient id="paint31_linear" x1="-0.19215" y1="19.3474" x2="25.3135" y2="19.3474" gradientUnits="userSpaceOnUse">
<stop offset="4.47534e-07" stop-color="#43BBED"/>
<stop offset="1" stop-color="#D0709A"/>
</linearGradient>
<linearGradient id="paint32_linear" x1="-0.192377" y1="17.8548" x2="25.3134" y2="17.8548" gradientUnits="userSpaceOnUse">
<stop offset="4.47534e-07" stop-color="#43BBED"/>
<stop offset="1" stop-color="#D0709A"/>
</linearGradient>
</defs>
</svg>
