<svg width="121" height="120" viewBox="0 0 121 120" fill="none" xmlns="http://www.w3.org/2000/svg">
<g filter="url(#filter0_d)">
<path d="M113.139 89.6608L94.0501 70.7142L79.3677 64.6933C84.2564 57.793 86.8756 49.5609 86.8662 41.1253C86.8662 18.4487 68.2794 0 45.4331 0C22.5867 0 4 18.4487 4 41.1253C4 63.8019 22.5867 82.2506 45.4331 82.2506C54.0061 82.2603 62.3686 79.6156 69.3558 74.6849L75.4059 89.219L94.4936 108.167C96.9661 110.621 100.319 112 103.816 112C107.313 112 110.666 110.621 113.139 108.167C115.611 105.713 117 102.385 117 98.914C117 95.4434 115.611 92.1149 113.139 89.6608ZM11.5333 41.1253C11.5333 22.5722 26.7411 7.47732 45.4331 7.47732C64.1251 7.47732 79.3329 22.5722 79.3329 41.1253C79.3329 59.6784 64.1251 74.7732 45.4331 74.7732C26.7411 74.7732 11.5333 59.6786 11.5333 41.1253ZM107.811 102.88C106.751 103.93 105.314 104.519 103.816 104.519C102.318 104.519 100.881 103.93 99.8208 102.88L81.7946 84.9875L76.1696 71.4734L89.7853 77.0562L107.812 94.9485C108.87 96.0011 109.464 97.4273 109.464 98.9141C109.464 100.401 108.869 101.827 107.811 102.88Z" fill="#BBBBBB"/>
</g>
<defs>
<filter id="filter0_d" x="0" y="0" width="121" height="120" filterUnits="userSpaceOnUse" color-interpolation-filters="sRGB">
<feFlood flood-opacity="0" result="BackgroundImageFix"/>
<feColorMatrix in="SourceAlpha" type="matrix" values="0 0 0 0 0 0 0 0 0 0 0 0 0 0 0 0 0 0 127 0" result="hardAlpha"/>
<feOffset dy="4"/>
<feGaussianBlur stdDeviation="2"/>
<feColorMatrix type="matrix" values="0 0 0 0 0 0 0 0 0 0 0 0 0 0 0 0 0 0 0.25 0"/>
<feBlend mode="normal" in2="BackgroundImageFix" result="effect1_dropShadow"/>
<feBlend mode="normal" in="SourceGraphic" in2="effect1_dropShadow" result="shape"/>
</filter>
</defs>
</svg>
