<svg width="16" height="25" viewBox="0 0 16 25" fill="none" xmlns="http://www.w3.org/2000/svg">
<path d="M12.8 1.5625C13.2243 1.5625 13.6313 1.72712 13.9314 2.02015C14.2314 2.31317 14.4 2.7106 14.4 3.125V21.875C14.4 22.2894 14.2314 22.6868 13.9314 22.9799C13.6313 23.2729 13.2243 23.4375 12.8 23.4375H3.2C2.77565 23.4375 2.36869 23.2729 2.06863 22.9799C1.76857 22.6868 1.6 22.2894 1.6 21.875V3.125C1.6 2.7106 1.76857 2.31317 2.06863 2.02015C2.36869 1.72712 2.77565 1.5625 3.2 1.5625H12.8ZM3.2 0C2.35131 0 1.53737 0.32924 0.937258 0.915291C0.337142 1.50134 0 2.2962 0 3.125V21.875C0 22.7038 0.337142 23.4987 0.937258 24.0847C1.53737 24.6708 2.35131 25 3.2 25H12.8C13.6487 25 14.4626 24.6708 15.0627 24.0847C15.6629 23.4987 16 22.7038 16 21.875V3.125C16 2.2962 15.6629 1.50134 15.0627 0.915291C14.4626 0.32924 13.6487 0 12.8 0L3.2 0Z" fill="white"/>
<path d="M7.99999 21.75C8.42434 21.75 8.83131 21.5788 9.13136 21.274C9.43142 20.9693 9.59999 20.556 9.59999 20.125C9.59999 19.694 9.43142 19.2807 9.13136 18.976C8.83131 18.6712 8.42434 18.5 7.99999 18.5C7.57565 18.5 7.16868 18.6712 6.86862 18.976C6.56857 19.2807 6.39999 19.694 6.39999 20.125C6.39999 20.556 6.56857 20.9693 6.86862 21.274C7.16868 21.5788 7.57565 21.75 7.99999 21.75Z" fill="white"/>
</svg>
