<svg width="30" height="26" viewBox="0 0 30 26" fill="none" xmlns="http://www.w3.org/2000/svg">
<path d="M18.6728 10.1111C20.0693 10.1111 21.2028 11.2436 21.2028 12.6389V19.4986C21.2028 21.2228 20.5172 22.8765 19.2969 24.0958C18.0766 25.315 16.4215 26 14.6957 26C12.9699 26 11.3148 25.315 10.0945 24.0958C8.87417 22.8765 8.1886 21.2228 8.1886 19.4986V12.6389C8.1886 11.2436 9.32058 10.1111 10.7186 10.1111H18.6728ZM18.6728 12.2778H10.7186C10.6227 12.2778 10.5308 12.3158 10.463 12.3835C10.3952 12.4513 10.3571 12.5431 10.3571 12.6389V19.4986C10.3571 20.6482 10.8142 21.7508 11.6279 22.5637C12.4415 23.3766 13.545 23.8333 14.6957 23.8333C15.8463 23.8333 16.9499 23.3766 17.7635 22.5637C18.5771 21.7508 19.0342 20.6482 19.0342 19.4986V12.6389C19.0342 12.5431 18.9961 12.4513 18.9284 12.3835C18.8606 12.3158 18.7687 12.2778 18.6728 12.2778ZM2.76435 10.1111H7.65225C7.1422 10.7266 6.83071 11.482 6.75881 12.2778H2.76435C2.66849 12.2778 2.57656 12.3158 2.50878 12.3835C2.441 12.4513 2.40292 12.5431 2.40292 12.6389V17.3319C2.40283 17.8777 2.52653 18.4165 2.76474 18.9077C3.00295 19.3989 3.34946 19.8298 3.77826 20.168C4.20705 20.5062 4.70698 20.7429 5.24049 20.8604C5.77399 20.9779 6.3272 20.973 6.85856 20.8462C6.98144 21.5742 7.20553 22.269 7.51346 22.9147C6.65657 23.1437 5.75843 23.1728 4.8885 22.9996C4.01857 22.8265 3.20015 22.4557 2.49653 21.9161C1.7929 21.3764 1.22293 20.6823 0.830672 19.8874C0.438417 19.0925 0.234393 18.2181 0.234375 17.3319V12.6389C0.234375 11.2436 1.3678 10.1111 2.76435 10.1111ZM21.7391 10.1111H26.6184C28.0149 10.1111 29.1483 11.2436 29.1483 12.6389V17.3333C29.1485 18.219 28.9449 19.0929 28.5533 19.8874C28.1616 20.682 27.5924 21.3759 26.8895 21.9156C26.1867 22.4554 25.369 22.8264 24.4998 23.0002C23.6306 23.1739 22.733 23.1456 21.8765 22.9176C22.1858 22.2704 22.4099 21.5757 22.5343 20.8477C23.065 20.973 23.6171 20.9767 24.1495 20.8585C24.6818 20.7403 25.1805 20.5033 25.6081 20.1653C26.0358 19.8272 26.3813 19.3968 26.6188 18.9064C26.8564 18.416 26.9798 17.8782 26.9798 17.3333V12.6389C26.9798 12.5431 26.9417 12.4513 26.8739 12.3835C26.8061 12.3158 26.7142 12.2778 26.6184 12.2778H22.6326C22.5607 11.482 22.2492 10.7266 21.7391 10.1111ZM14.6913 0C15.8416 0 16.9448 0.456546 17.7581 1.2692C18.5715 2.08186 19.0284 3.18406 19.0284 4.33333C19.0284 5.4826 18.5715 6.58481 17.7581 7.39746C16.9448 8.21012 15.8416 8.66667 14.6913 8.66667C13.5411 8.66667 12.4379 8.21012 11.6246 7.39746C10.8112 6.58481 10.3543 5.4826 10.3543 4.33333C10.3543 3.18406 10.8112 2.08186 11.6246 1.2692C12.4379 0.456546 13.5411 0 14.6913 0ZM24.0884 1.44444C25.0469 1.44444 25.9662 1.8249 26.644 2.50211C27.3218 3.17933 27.7026 4.09783 27.7026 5.05556C27.7026 6.01328 27.3218 6.93178 26.644 7.609C25.9662 8.28621 25.0469 8.66667 24.0884 8.66667C23.1298 8.66667 22.2105 8.28621 21.5327 7.609C20.8549 6.93178 20.4741 6.01328 20.4741 5.05556C20.4741 4.09783 20.8549 3.17933 21.5327 2.50211C22.2105 1.8249 23.1298 1.44444 24.0884 1.44444ZM5.29432 1.44444C6.25287 1.44444 7.17217 1.8249 7.84997 2.50211C8.52777 3.17933 8.90856 4.09783 8.90856 5.05556C8.90856 6.01328 8.52777 6.93178 7.84997 7.609C7.17217 8.28621 6.25287 8.66667 5.29432 8.66667C4.33576 8.66667 3.41646 8.28621 2.73866 7.609C2.06086 6.93178 1.68007 6.01328 1.68007 5.05556C1.68007 4.09783 2.06086 3.17933 2.73866 2.50211C3.41646 1.8249 4.33576 1.44444 5.29432 1.44444ZM14.6913 2.16667C14.1162 2.16667 13.5646 2.39494 13.158 2.80127C12.7513 3.2076 12.5228 3.7587 12.5228 4.33333C12.5228 4.90797 12.7513 5.45907 13.158 5.8654C13.5646 6.27173 14.1162 6.5 14.6913 6.5C15.2665 6.5 15.8181 6.27173 16.2247 5.8654C16.6314 5.45907 16.8599 4.90797 16.8599 4.33333C16.8599 3.7587 16.6314 3.2076 16.2247 2.80127C15.8181 2.39494 15.2665 2.16667 14.6913 2.16667ZM24.0884 3.61111C23.705 3.61111 23.3372 3.76329 23.0661 4.03418C22.795 4.30507 22.6427 4.67246 22.6427 5.05556C22.6427 5.43865 22.795 5.80605 23.0661 6.07693C23.3372 6.34782 23.705 6.5 24.0884 6.5C24.4718 6.5 24.8395 6.34782 25.1106 6.07693C25.3818 5.80605 25.5341 5.43865 25.5341 5.05556C25.5341 4.67246 25.3818 4.30507 25.1106 4.03418C24.8395 3.76329 24.4718 3.61111 24.0884 3.61111ZM5.29432 3.61111C4.91089 3.61111 4.54317 3.76329 4.27205 4.03418C4.00093 4.30507 3.84862 4.67246 3.84862 5.05556C3.84862 5.43865 4.00093 5.80605 4.27205 6.07693C4.54317 6.34782 4.91089 6.5 5.29432 6.5C5.67774 6.5 6.04546 6.34782 6.31658 6.07693C6.5877 5.80605 6.74001 5.43865 6.74001 5.05556C6.74001 4.67246 6.5877 4.30507 6.31658 4.03418C6.04546 3.76329 5.67774 3.61111 5.29432 3.61111Z" fill="#7C7C7C"/>
</svg>
