<svg width="26" height="26" viewBox="0 0 26 26" fill="none" xmlns="http://www.w3.org/2000/svg">
<path d="M9.75 3.25C10.5535 3.25 11.3389 3.48826 12.007 3.93465C12.6751 4.38105 13.1958 5.01552 13.5033 5.75785C13.8107 6.50017 13.8912 7.31701 13.7344 8.10505C13.5777 8.8931 13.1908 9.61697 12.6226 10.1851C12.0545 10.7533 11.3306 11.1402 10.5426 11.2969C9.75451 11.4537 8.93768 11.3732 8.19535 11.0658C7.45303 10.7583 6.81855 10.2376 6.37216 9.5695C5.92576 8.90143 5.6875 8.11599 5.6875 7.3125C5.6875 6.23506 6.11551 5.20175 6.87738 4.43988C7.63925 3.67801 8.67256 3.25 9.75 3.25ZM9.75 1.625C8.62512 1.625 7.5255 1.95857 6.5902 2.58352C5.65489 3.20847 4.92591 4.09673 4.49544 5.13599C4.06496 6.17524 3.95233 7.31881 4.17179 8.42208C4.39124 9.52534 4.93292 10.5388 5.72833 11.3342C6.52374 12.1296 7.53716 12.6713 8.64043 12.8907C9.74369 13.1102 10.8873 12.9975 11.9265 12.5671C12.9658 12.1366 13.854 11.4076 14.479 10.4723C15.1039 9.537 15.4375 8.43738 15.4375 7.3125C15.4375 5.80408 14.8383 4.35744 13.7717 3.29083C12.7051 2.22422 11.2584 1.625 9.75 1.625Z" fill="#858585"/>
<path d="M17.875 24.375H16.25V20.3125C16.25 19.2351 15.822 18.2017 15.0601 17.4399C14.2983 16.678 13.2649 16.25 12.1875 16.25H7.3125C6.23506 16.25 5.20175 16.678 4.43988 17.4399C3.67801 18.2017 3.25 19.2351 3.25 20.3125V24.375H1.625V20.3125C1.625 18.8041 2.22422 17.3574 3.29083 16.2908C4.35744 15.2242 5.80408 14.625 7.3125 14.625H12.1875C13.6959 14.625 15.1426 15.2242 16.2092 16.2908C17.2758 17.3574 17.875 18.8041 17.875 20.3125V24.375Z" fill="#858585"/>
<path d="M17.875 3.25H26V4.875H17.875V3.25Z" fill="#858585"/>
<path d="M17.875 7.3125H26V8.9375H17.875V7.3125Z" fill="#858585"/>
<path d="M17.875 11.375H23.5625V13H17.875V11.375Z" fill="#858585"/>
</svg>
